<svg xmlns="http://www.w3.org/2000/svg" viewBox="0 0 692.99 1169.59"><defs><style>.cls-1{fill:none;}.cls-2{fill:#5585d0;}.cls-3{fill:#fffef4;}.cls-4{fill:#f2d3c2;}.cls-5{fill:#fff;}.cls-6{fill:#edf0f3;}.cls-7{fill:#474848;}.cls-8{fill:#86b3d4;}.cls-9{fill:#dde9f2;}.cls-10{fill:#5c84c7;}.cls-11{fill:#e0cbad;}.cls-12{fill:#4f5256;}</style></defs><title>アセット 5</title><g id="レイヤー_2" data-name="レイヤー 2"><g id="akari"><path class="cls-1" d="M442.09,628.87l-3.55,10.88-2.71,8.12a83.12,83.12,0,0,1-3.87,9.61l-2.51,5.23c-1,2-2,4-3.14,5.89l-2.51,4.25a55.05,55.05,0,0,1-5.52,7.72l-3,3.47-4.86,5.82q-2.13,2.53-4.48,4.86l-3.7,3.64c-1.15,1.14-2.34,2.23-3.57,3.29l-2.5,2.14.4,4.35,1.19.44a10.48,10.48,0,0,1,2.95.89,15.75,15.75,0,0,1,4.48,3.14l.8.81a16,16,0,0,1,2.72,3.62l1.44,2.61,3.11,6.41c.69,1.41,1.32,2.86,1.89,4.33l3.38,8.83q1.08,2.81,2.31,5.55l3.07,6.84c.51,1.15,1.06,2.27,1.64,3.38l2.59,5a51.13,51.13,0,0,1,3.37,8.14l4.19-7.06,7.61-13.34,5.42-9.46q1.8-3.13,3.33-6.42l3.83-8.27,6.26-14.38c.58-1.32,1.11-2.66,1.61-4l3.88-10.55,3.42-11,2.09-8.22a104.68,104.68,0,0,0,2.23-11.23l.87-6q.54-3.74.83-7.5l.82-10.38.55-17.1-.18-15.35L477,611.49q-1.71,4.66-3.81,9.17l-1.5,3.21q-1.39,3-3,5.93l-3.3,6.18q-1.69,3.19-3.65,6.24l-3.23,5a111.28,111.28,0,0,1-7.64,10.54l-4.31,5.28a119.17,119.17,0,0,1-11.32,12l-5.11,4.73,4.9-12,3.79-9.71,1-2.84a95.83,95.83,0,0,0,2.83-9.25l1.78-7.14,1.86-9.06c.28-1.33.52-2.66.73-4l-3.7-1.19Z"/><path class="cls-1" d="M446.92,793.25c1.72.91,3.42,1.87,5.11,2.85a28.52,28.52,0,0,1,4.85,1.47,4.89,4.89,0,0,1,.72.37l4.2,2.66a79,79,0,0,1,12.28,9.58h0a69.39,69.39,0,0,1,8.44,9.68l3,4.12-.22-.2a130.58,130.58,0,0,1,9.15,13c1,.55,2.06,1.11,3.1,1.63l2.21,1.11,9.55,4.57,1.12.54c.16-.5.34-1,.48-1.48l2-6.87c.5-1.69,1-3.41,1.34-5.13l2-9,3.12-13.42a100.32,100.32,0,0,0,1.8-10l.77-6L518.49,798q-3.09,4.6-6.6,8.92l-3.6,4.43,3.25-14.22,2.74-10.67,4.37-16,.07-.22c1.37-4.46,2.53-9,3.45-13.55l1.76-8.68a79.86,79.86,0,0,0-.55-11.78l-.62-5.18c-.37-3-.82-6-1.37-8.92l-1.68-9.1-2.18-15.22-3.28,6.49q-2.25,4.45-4.87,8.7l-7.17,11.59-6.22,9a126,126,0,0,1-9.32,11.89l-11,12.46L461.7,772.21c-1.68,1.74-3.43,3.42-5.23,5l-12,10.71-2.64,2.3,3.1,2Z"/><path class="cls-1" d="M280.3,774.85a65.29,65.29,0,0,0,1.42-6.78l1.09-7.1L284,750.85l1.15-7.07c.17-1.09.39-2.17.63-3.25h0a17.36,17.36,0,0,1,2.18-5.31h0a19.3,19.3,0,0,1,2.56-3.28l1.95-2L284.15,726c-2.21-1-4.4-2.16-6.55-3.34l-7.27-4q-2.2-1.2-4.35-2.54l-4.13-2.56a38.86,38.86,0,0,1-4.19-3l-4.61-3.85c-1.17-1-2.37-1.92-3.6-2.82l-1.41-1a104.11,104.11,0,0,1-9.49-7.91q-3.17-3-6.11-6.16l-.29-.31q-2.49-2.69-4.82-5.49l-1.27-1.53-5.83-1.89-4.41-1.4c-.77-.25-1.52-.53-2.26-.85l7.29,15.64,4.19,8.55,9.57,9.58-6.26-2.81,2.72,5.56,7.17,12q3.49,5.82,7.29,11.43l2.11,3.1,9.43,13q4,5.52,8.41,10.72l2.87,3.37a120.59,120.59,0,0,0,10.9,11.25l.32-1Z"/><path class="cls-1" d="M456.66,812.8c-1.07-.47-2.15-.89-3.23-1.29Z"/><path class="cls-1" d="M495.59,422.42l-.52.1,2.91,7.93q.88,2.42,1.56,4.91l1.57,5.79.6,1.87a43.13,43.13,0,0,1,1.64,7.11l.86,8.62.5,3.56c.24,1.77.42,3.55.55,5.33l0,.31c1.25,2.48,2.43,5,3.52,7.55l5.76,13.56,7,18.28,8.69,16,5.61,9.76-1.52-6.71c-.63-2.73-1.11-5.49-1.47-8.27l-.18-1.48a57.73,57.73,0,0,0-2.28-10.23l-1.84-5.69-9.14-24.84-7.25-22.67c-.58-1.8-1.2-3.58-1.89-5.34l-3.46-8.92-3.15-7.26c-.55-1.26-1.12-2.5-1.74-3.72l-1.67-3.34-1.55-2.76-.2,0c-.61,1-1.26,2-1.95,3Z"/><path class="cls-1" d="M481.28,828.26l1,.75a99.37,99.37,0,0,0,11.79,7.59l-6.94-4.25Z"/><path class="cls-1" d="M263,799.8l2-2.29h3.66a15.49,15.49,0,0,1,3.11.32h0l2.06-3c-1.59-1-3.17-2-4.71-3l-8-5.45a124.85,124.85,0,0,1-10-7.56l-3.9-3.24q-3.48-2.91-6.72-6.08l-6.74-6.6,6.33,11q2.22,3.87,4.17,7.89l4.77,9.82,7.39,14.07,3-2.42A30.52,30.52,0,0,0,263,799.8Z"/><path class="cls-1" d="M96.32,899.36l.85,19.52a69.07,69.07,0,0,1-.13,8l-1.49,20.29,4.35-4.09L114.73,929h0a33.48,33.48,0,0,0,4.38-2.89l.34-.26a53.75,53.75,0,0,1,17.26-8.93,97.3,97.3,0,0,1,11.68-10l.75-.54q2.6-1.87,5.28-3.6l6.31-4.05a66.83,66.83,0,0,0,7-5.18l4-3.38a53.89,53.89,0,0,0,6.33-6.31l2.42-2.84q2.81-3.32,5.32-6.86l7.3-10.33,5.13-7a152.35,152.35,0,0,1,13.29-15.74l8.82-5.88-.9-.93q-4.19-4.5-8-9.3l-8.37-10.46-7.45-9.93q-5.37-7.17-10-14.83l-1-1.61A227,227,0,0,1,170.44,761l-2.9-6.63q-4.38-10-7.77-20.44l-.87-2.69q-1.23-3.79-2.24-7.66l-2-7.5c-1.14-4.36-2.13-8.77-3-13.2l-4.85-25.71-3.9-28.8q-.37-2.75-1-5.48l-1.26-5.84L137.92,633l-2.07-2.71q-2.32-3-4.39-6.25l-6.38,9.13a56.38,56.38,0,0,1-7.38,8.57,38.57,38.57,0,0,1-3.83,3.17l-3,16.67-2.51,16.33-3.08,20.67-2.5,16.26a98.36,98.36,0,0,0-1.06,11.09l-.34,9.09-.2,9.45q-.09,3.81.11,7.62l.45,8.91c.13,2.59.36,5.19.69,7.76l.17,1.34a119,119,0,0,0,3.63,17.52l.12.44c.59,2.06,1.25,4.09,2,6.1l2.55,7.21a103.81,103.81,0,0,0,4.54,10.84l.77,1.58q1.68,3.47,3.68,6.75l4.28,7,6,8.88q2.69,4,5.69,7.69L141,850.6l7.47,10.08q1.32,1.79,2.75,3.49l4.3,5.14a80.63,80.63,0,0,1-16.19-6.92l-1.44-.81-7.3-4.22q-3.36-1.93-6.6-4.07l-3.41-2.23c-2.33-1.53-4.62-3.14-6.84-4.83l-1.5-1.14A118.59,118.59,0,0,1,100.63,835h0a105.86,105.86,0,0,1-9.3-10.44.64.64,0,0,0-.1-.13L93,862.27Z"/><path class="cls-2" d="M440.62,300.15a11.78,11.78,0,0,1,5,1.84h0a27.87,27.87,0,0,1,2.76,2.06l.32-.05,7.24-4,6.58-3.29a64,64,0,0,1,9.67-3.89l3.45-1.06,5.6-1.53a33.67,33.67,0,0,1,6.62-1.11l5.54-.37a60.54,60.54,0,0,1,6.32-.09l4.95.18-.21-1.57a5.11,5.11,0,0,1,.14-2,6.38,6.38,0,0,1,1.07-2.13l4.05-5.35,10-14.66,11.41-17.73L543.06,227l4.63-7.2a84.15,84.15,0,0,0,6.41-12l.85-2a67.23,67.23,0,0,0,2.4-6.49,43.39,43.39,0,0,0,1.61-7.4h0a12.82,12.82,0,0,0-.94-6.7h0a14,14,0,0,0-1.11-2.1l-3.21-5-2-3.08,1-2.18q1.77-3.84,3.2-7.81l2-5.52a5.16,5.16,0,0,0,.21-.77,103.2,103.2,0,0,0,1.79-20.68V137l-.21-9.64c-.07-3.14-.27-6.27-.62-9.38l-1.14-10.29c-.23-2-.52-4.1-.87-6.13l-1.82-10.62q-.59-3.45-1.41-6.85l-3.65-15.1-.8-4.22a112.5,112.5,0,0,0-4.69-17.11l-1.14-3.17c-1.23-3.41-2.64-6.75-4.2-10L534.27,23.9l-5.54-10.19A48.13,48.13,0,0,0,526,9.27,34.9,34.9,0,0,0,516.38,0l-2.33,9.59c-.3,1.21-.63,2.42-1,3.62l-4,13.44a74.64,74.64,0,0,1-3,8.21l-3.41,7.86a80.28,80.28,0,0,1-4.4,8.68l-6,10.29-11.57,21-12.8,23.9L457,129a84.21,84.21,0,0,0-3.36,8l-6.52,18.22q-.95,2.66-1.76,5.37l-1.95,6.57q-1.09,3.68-1.87,7.43l-2.16,10.43-2.49,14.29c-.29,1.68-.53,3.37-.72,5.06l-1.57,14.27L433,232.56l-1.39,19.74-1.7,31.15-.51,18.67a29.14,29.14,0,0,1,3.76-1.38A18.5,18.5,0,0,1,440.62,300.15Z"/><path class="cls-2" d="M249.58,278.17a78.58,78.58,0,0,1,12.23-2.63l6.76-.91,8.62-.69a81,81,0,0,1,9.61-.21l6.87.26h5.41l11.68-2.38,3.86-.76a70.63,70.63,0,0,1,12.3-1.3l6.78-.11h7.86a80.86,80.86,0,0,1,10.2.64L364,271.61l8.94,1.48a70.11,70.11,0,0,1,10.48,2.61l.78.26a82.9,82.9,0,0,1,10,4.05l2.32,1.11a87.74,87.74,0,0,1,9.55,5.37l2.79,1.8a29.46,29.46,0,0,1,6.44,5.66,61,61,0,0,1,3.91,5.14l-1.8-4.25a52.54,52.54,0,0,0-4-7.64l-2.95-4.59c-.69-1.08-1.35-2.19-2-3.32l-3.68-6.69c-.83-1.5-1.73-3-2.7-4.39l-5.77-8.43c-.74-1.08-1.51-2.13-2.31-3.16l-6-7.71-6.5-7.64c-.91-1.08-1.86-2.12-2.85-3.14l-6.48-6.69c-1.27-1.31-2.61-2.55-4-3.73l-5.63-4.77a58.21,58.21,0,0,0-4.8-3.64l-6.6-4.48-10.81-7.72c-.71-.5-1.43-1-2.17-1.46l-5.15-3.26a38.1,38.1,0,0,0-6.3-3.21L318.7,196c-1.05-.42-2.11-.8-3.18-1.16l-11.36-3.74c-1-.34-2.05-.64-3.09-.91l-12.93-3.3-17.78-3.77a41.66,41.66,0,0,0-5.21-.76l-23-1.85c-.79-.06-1.58-.1-2.37-.1l-45.39-.3-39.51,1.05c-.59,0-1.19,0-1.78,0l-18.85-.74-2.47,5.25-2.93,5.55,9.73,7.84c.92.74,1.8,1.51,2.64,2.33l12.61,12.19L164.45,223l13.88,11.87,12.34,10.64,6.4,6a54,54,0,0,0,6.07,4.9l1.9,1.31a58.66,58.66,0,0,0,6,3.66l2.9,1.53a47.56,47.56,0,0,0,4.4,2.06l3.23,1.32c.87.36,1.75.68,2.64,1l3.75,1.25a2.4,2.4,0,0,0-1.38,1.6l-.05.21a4.69,4.69,0,0,0,.24,3.09,9.08,9.08,0,0,0,1,1.81l.65.86a17.75,17.75,0,0,0,3.48,3.5,13.11,13.11,0,0,0,4.13,2.1l1.09.33,3.24-1.08Z"/><path class="cls-2" d="M531.85,299.31A77.85,77.85,0,0,1,547.59,314l5.3,6.53,1.19,1.61a104.51,104.51,0,0,1,9.82,16.17l4.68,9.57,8.08,17.24c.64,1.38,1.25,2.77,1.82,4.17l6.63,16.33,23.34-4.51,24.21-4.78,20-5c1.05-.27,2.12-.49,3.19-.66l8.72-1.43-4.32-2.63-5.88-3.48c-1.12-.66-2.25-1.28-3.4-1.88l-8.45-4.35-16-9.1L606.6,336.5,594,330.07c-2.48-1.26-5-2.41-7.6-3.44l-5.84-2.31L571.05,321a35.75,35.75,0,0,0-5.19-1.38h0a52.44,52.44,0,0,0-9.6-.89h-3.49a24.36,24.36,0,0,1,.11-5.85l.08-.55c.18-1.28.42-2.57.71-3.84l.66-2.94a5.57,5.57,0,0,0-.05-2.63,14.3,14.3,0,0,0-1.83-4.18,1.33,1.33,0,0,0-.35-.36,10.83,10.83,0,0,0-2.51-1.23,59.1,59.1,0,0,0-7.64-2l-10.92-2-16.66-2.93-3.93-.58a62.75,62.75,0,0,1,16.28,6.41Q529.36,297.57,531.85,299.31Z"/><path class="cls-3" d="M214.8,874.24q-3,3.56-6.13,6.94l-2.77,5.37-2.75,5.73-1.6,5.27,6.87-3.21L225.13,887l2.71-2.33-1.78,0H219.3l-.24-1.13a5.38,5.38,0,0,1,.51-3.65,8.23,8.23,0,0,1,2.19-2.61l3.65-2.85,1.44-1.26a10.57,10.57,0,0,0,2.78-3.8l.36-.83-3-1a42.26,42.26,0,0,1-5.1-2.14l-1.3,1.82Z"/><path class="cls-3" d="M205,875.1a47.52,47.52,0,0,0-6.95,8.11l6.28-6.87Z"/><path class="cls-3" d="M358.2,926l1.65-11.48-.58,3.55C358.84,920.74,358.49,923.39,358.2,926Z"/><path class="cls-3" d="M385.08,845.16C384,847,383,848.91,382,850.82l5.82-9.78,2.95-5.35-2.31,3.59Z"/><path class="cls-3" d="M282,892.13c.43,3,1,6,1.72,8.92l.76,3.14a45.46,45.46,0,0,0,11.68-4.86l4.75-2.81a90.73,90.73,0,0,0,13.42-9.71l3.43-3a68,68,0,0,0,5.49-5.38l4.28-4.71,3.89-4.12-2.49-2.36a13.64,13.64,0,0,0-4.22-2.74,54.94,54.94,0,0,0-14.58-3.82c-1.38-.16-2.76-.28-4.14-.35l-2-.12a86.79,86.79,0,0,0-13.39.33l-.38.48-.83,1,3.51,5.69,8.95,13.24-13.22-4.36q-4.08-1.35-8.07-2.92l.06,8.54Z"/><path class="cls-3" d="M198.25,856.89l-5.13,7-7.3,10.33q-2.5,3.54-5.32,6.86l-2.42,2.84a53.89,53.89,0,0,1-6.33,6.31l-4,3.38a66.83,66.83,0,0,1-7,5.18l-6.31,4.05q-2.68,1.73-5.28,3.6l-.75.54a97.3,97.3,0,0,0-11.68,10l-2.6,2.95a59.73,59.73,0,0,0-6.68,9.19l-1.36,2.3a36.11,36.11,0,0,0-2.73,5.76,15,15,0,0,0-.68,8l-6.1,6.17,9.82-7,19.14-12a113.57,113.57,0,0,0,11.36-8.15l13.24-10.79,3.69-3.29.43-.41c.17-.22.36-.43.54-.66h0a30.62,30.62,0,0,0,2.06-3l7.07-11.51,7.14-11.08c1-1.62,2.14-3.21,3.28-4.77l8.83-12.08a20.58,20.58,0,0,1,1.44-1.77l11.82-13c0-.37-.13-.74-.17-1.12l1.91-1.31c.37-.25.74-.49,1.12-.72l.13-.14,5.85-6c0-.81-.07-1.62-.07-2.43v0q-2.48-2.36-4.83-4.83l-8.82,5.88A152.35,152.35,0,0,0,198.25,856.89Z"/><path class="cls-3" d="M519.93,854.41a125.38,125.38,0,0,1-10.74,8.48l-8.22,5.8,1.95-4.18q2-4.35,3.62-8.87l3.13-8.78c.26-.74.48-1.48.72-2.22l-1.12-.54-9.55-4.57-2.21-1.11c-1-.52-2.07-1.08-3.1-1.63l0,0-.38-.23A99.37,99.37,0,0,1,482.28,829l-1-.75-4.41-3.09-5.4-3.89c-1.28-.91-2.57-1.79-3.89-2.63a76.89,76.89,0,0,0-9.21-5l-1.71-.8-3.23-1.29-.43-.16a65.86,65.86,0,0,0-7,.93,25.55,25.55,0,0,0-7,2.45,56.36,56.36,0,0,0-12.71,9.12l0,0a93.2,93.2,0,0,0-8.82,9.7l-1.79,2.26a82.21,82.21,0,0,0-6.08,8.86l-5.85,9.88q-1.41,2.38-2.63,4.88L397,867.89a69.57,69.57,0,0,0-3,7.18l-3.37,9.36a71.29,71.29,0,0,0-2.08,6.86l-2.62,10.6c-.41,1.66-.77,3.33-1.06,5l-3.17,17.83-3.3,23.58c-.31,2.22-.55,4.44-.7,6.67l-1.08,16-.46,9.36c.41.59.82,1.18,1.25,1.76l1.3,1.79,10.23,13.27,8.95,11.92,9.59,12.32,10.55,13.15h0a63.59,63.59,0,0,0,.06-6.62l-.52-11.94c-.07-1.52-.19-3-.39-4.53l-.34-2.66a75.86,75.86,0,0,1-.58-8.11l0-2.76a74.29,74.29,0,0,1,.44-9.55l.05-.53c.26-2.31.6-4.61,1-6.89l1-5.38c.26-1.37.57-2.73.91-4.08l1.16-4.54a53.53,53.53,0,0,1,2-6.18h0a92.62,92.62,0,0,1,7.89-15.66l.06-.1a38.39,38.39,0,0,1,6.37-7.67h0a64.58,64.58,0,0,1,8.84-6.87h0a17.48,17.48,0,0,1,3.73-1.84,63.63,63.63,0,0,1,14.73-3.32,42.84,42.84,0,0,1,7-.15,85,85,0,0,1,11.57,1.51A57.87,57.87,0,0,1,494,930.06a109.63,109.63,0,0,1,11.78,5.76,60.81,60.81,0,0,1,8.29,5.64,114.53,114.53,0,0,1,9.59,8.7l1.76,1.8a98.14,98.14,0,0,1,8.12,9.39l1.91,2.53a58.68,58.68,0,0,1,5.7,9.17,50.16,50.16,0,0,1,4.24,12.18c.18.85.32,1.7.45,2.55l1.49-4.43q1.16-3.42,2-6.91a63.41,63.41,0,0,1,3.15-9.38l.93-1.19a34.43,34.43,0,0,0,3.64-5.75c.46-.92.89-1.84,1.3-2.78l2-4.75a43.1,43.1,0,0,0,2.67-8.46,107.55,107.55,0,0,0,1.71-11.57l.12-1.22a52,52,0,0,0,.16-7c-.17-4-.52-8.09-1-12.11l-.32-2.48a59.3,59.3,0,0,0-1.3-7,89,89,0,0,0-3.84-11.92l-.34-.83c-1.26-3.13-2.61-6.23-4.06-9.27l-.07-.14a39.55,39.55,0,0,0-4.66-7.51,69.11,69.11,0,0,0-5.06-5.75,83.8,83.8,0,0,0-8.13-7.28l-.68-.53c-.92-.72-1.86-1.42-2.82-2.09l-4.22-3q-2.49-1.72-5.13-3.2l-.67.61Z"/><path class="cls-3" d="M346.26,852.43a64.89,64.89,0,0,0-12.35-10,19.81,19.81,0,0,1-2.66-2l-3.43-3c-1.39-1.22-2.72-2.51-4-3.85l-4.46-4.74,1.21-1.54-7.06,5.89L304.79,841a84.1,84.1,0,0,0-6.08,6c-.59,1.33-1.2,2.64-1.85,3.92q-.78,1.51-1.65,3l6.41-.8,5.47-.38a63.46,63.46,0,0,1,15.08.73,74.1,74.1,0,0,1,24.75,9,25.52,25.52,0,0,1,3.94,2.83,8.17,8.17,0,0,1-1.85,4.46l-3,3.55-5.5,6.87-4.22,5a69.11,69.11,0,0,1-9.38,9.2l-4,3.24c-1.08.87-2.2,1.71-3.34,2.5l-7.21,5-10.17,6.4a44.8,44.8,0,0,1-4.55,2.51l-7.27,3.46-5.56,2.41c-.87.38-1.76.72-2.66,1a18.86,18.86,0,0,1-4.27.89.85.85,0,0,1-.6-.17,5.68,5.68,0,0,1-2.12-3.66l-.66-4.65c-.26-1.8-.44-3.62-.53-5.45l-.55-10.77L268.19,906l-1.6,2.59a101.94,101.94,0,0,0-7.52,14.67l-2.33,5.64-1.74,4.5c-.67,1.73-1.29,3.49-1.84,5.26L250.55,947l-8.47,8.25-2.75-.46,1-5.74a56.87,56.87,0,0,1,3.58-12.39l4.64-11.1c.87-2.09,1.86-4.13,2.9-6.14a18.27,18.27,0,0,1-6.38-.39,48.85,48.85,0,0,1-6-1.86l-3.37-1.28-5.43,5.44a54.27,54.27,0,0,1-6.09,5.24l-8.53,6.33L215,930.3a46.52,46.52,0,0,0-2.71-8.48l0-.06-1.57,1-2.87,2.76a97.41,97.41,0,0,0-7.53,8.2l-3.57,4.38-6.19,8.25-3.66,4.8-.78-.42a57.4,57.4,0,0,1-12.34-9.05l-.39-.37-2.06-3.44,10.76-10.07,8.44-7.12q3.24-2.73,6.71-5.17l9.58-6.72-11.09,4a50.19,50.19,0,0,1-5.85,1.72A61.34,61.34,0,0,1,191,902.7h0a22.93,22.93,0,0,1,1.25-4.16l-.55.58c-1.48,1.57-2.91,3.18-4.28,4.85-.32.39-.68.77-1,1.16-.82,1.41-1.68,2.79-2.61,4.13l-.74,1.08a73,73,0,0,1-9,10.66l-3.8,3.73a93.69,93.69,0,0,1-8.51,7.41l-8.09,6.2q-3.22,2.49-6.69,4.66L129,954.34l-.69-2.08a56.23,56.23,0,0,1-3.47,6,47.64,47.64,0,0,0-4.5,8.46,29.8,29.8,0,0,0-1.85,6.48h0a47.89,47.89,0,0,0-.63,9.19c0,1,.08,2,.16,2.93l.06.7a61.85,61.85,0,0,0,4.26,17.77l4.94,11.36,5.65,12.81c.3.69.58,1.38.84,2.08l2.28,6a53,53,0,0,1,1.86,6.06l2.06,8.6,5.28-4.82q2.3-2.1,4.39-4.39l4.13-4.52c1.67-1.82,3.25-3.73,4.74-5.7l4.86-6.46a65.16,65.16,0,0,1,5.31-6.19l5.44-5.59a64.3,64.3,0,0,1,8.43-7.28l5.12-3.72a58.41,58.41,0,0,1,7.39-4.55l9.49-4.89q2.3-1.18,4.69-2.16l10.24-4.16a47.73,47.73,0,0,1,4.8-1.66l26.88-7.7,26.49-6.43c1.33-.33,2.68-.59,4-.79l8.73-1.26,1.23-1.16,6.53-5.87,3.71-3.42a143.09,143.09,0,0,0,10.54-10.79l1.4-1.6a102.74,102.74,0,0,0,10.41-14.14h0q2.71-4.44,5.09-9.06l11-21.43c1.18-2.3,2.28-4.64,3.32-7l7.71-17.66,4.36-9.45c.54-1.16,1-2.34,1.53-3.52l-10.54-10.55Z"/><path class="cls-4" d="M390,709.11l-10.57,9c-1.73,1.47-3.49,2.88-5.3,4.25l-8.39,6.31-7.06,4.9q-4.15,2.88-8.56,5.35l-2.54,1.42a36,36,0,0,1-5.07,2.37,37.47,37.47,0,0,1-7.07,1.9,14.39,14.39,0,0,1-2.37.2,36.11,36.11,0,0,1-5.59-.44,50.07,50.07,0,0,1-6-1.33l-.33-.1c-1.53-.43-3-.94-4.52-1.5A107,107,0,0,1,303,735.09c-1.1-.61-2.21-1.19-3.35-1.73l-1.87-.9L300.6,748l.69.41a61.34,61.34,0,0,0,6.66,3.4l.79.35a80.36,80.36,0,0,1,10.1,5.32l1.83,1.13.15.25a6.12,6.12,0,0,1,.92,3.49l-.15,3.65L320,783.32l-1.62,14.76,3.69-5.76,7.38-10.85,7.16-10.84,4.3-6.55a20.65,20.65,0,0,1,2.26-2.85,66.42,66.42,0,0,1,7.72-6.89l.57-.43a26.07,26.07,0,0,1,2.21-1.51h0a80.22,80.22,0,0,1,11.06-5.6l2.69-1.11q2.18-.9,4.28-2l8.24-4.12a72.36,72.36,0,0,0,6.79-3.87h0A58.63,58.63,0,0,0,394,730.2l2.8-2.48-.24-19.59h0l-.4-4.35Z"/><path class="cls-5" d="M125.08,633.15l6.38-9.13-1.54-2.39q-2.16-3.35-4-6.89l-5.16-10-2.09,11.72-3.35,20.25-1.47,8.18a38.57,38.57,0,0,0,3.83-3.17A56.38,56.38,0,0,0,125.08,633.15Z"/><path class="cls-5" d="M24.9,1040.88a89.41,89.41,0,0,1,6.19-10.07l1.66-2.33a174.42,174.42,0,0,1,12.89-16.05l8.07-8.91q1.62-1.77,3.31-3.45l8.5-8.41a160.81,160.81,0,0,1,12.34-11l10-8L108.57,957l8-5.66,6.1-6.17a15,15,0,0,1,.68-8,36.11,36.11,0,0,1,2.73-5.76l1.36-2.3a59.73,59.73,0,0,1,6.68-9.19l2.6-2.95a53.75,53.75,0,0,0-17.26,8.93l-.34.26a33.48,33.48,0,0,1-4.38,2.89h0L99.9,943.09l-4.35,4.09L97,926.89a69.07,69.07,0,0,0,.13-8l-.85-19.52L93,862.27l-1.76-37.81q-3.8-4.9-7.17-10.1l-3.91-6.05-2-3.24a100.32,100.32,0,0,1-7-13.7l-1.73-4.15c-.75-1.81-1.45-3.64-2.08-5.49l-2.54-7.38-1.07-3.1a70.41,70.41,0,0,1-3.34-14.46l-.12-1q-.47-3.75-.6-7.55l-.2-5.7,0-3a129.71,129.71,0,0,1,.85-16.94l1-8.87L63,702.85c.58-3.94,1.31-7.86,2.16-11.75L69,673.47l4.33-17.15,5-18.14L82,623.36l6-23.37q.88-3.43,1.42-6.94l3.45-22.3L95.63,546l-1.16-10.32-.13-1.4-3,7.28-1.67.83.42-17.76V487l-.63-26.74-.37-18.91c0-1.74-.15-3.47-.35-5.2L88.13,431a7.35,7.35,0,0,0-.72-2.42,6.72,6.72,0,0,0-1.89-2.28,5,5,0,0,0-3.41-1,2.42,2.42,0,0,0-1.68.86,26.92,26.92,0,0,0-4.28,7,19.58,19.58,0,0,0-1.27,4.58l-1.32,8.7-2.92,22.77L68.76,489.7l-1.65,17.41c-.15,1.62-.23,3.25-.23,4.88v10.09l-.18,8.73a29.91,29.91,0,0,1-.25,3.41l-.07.51a13.9,13.9,0,0,1-1.59,4.9,8.68,8.68,0,0,1-2.37-4.5l-3.48-18.69-8.08-51.13q-.27-1.72-.69-3.42l-3.75-15.31a46.1,46.1,0,0,0-1.59-5.17l-3.35-8.94a8.78,8.78,0,0,0-2.18-3.28l0-.05a7.09,7.09,0,0,0-4.83-1.91,1.88,1.88,0,0,0-1.3.54,10.68,10.68,0,0,0-2.54,4.12h0a22.06,22.06,0,0,0-1.14,6.74l-.14,9.58c0,1.2,0,2.39.09,3.58l.18,3.09q.33,5.36,1.17,10.67L33,480.09l2.82,24.49q.31,2.67.76,5.31l2.89,17,1.67,9.61-1.88.42-.57-.73A42.76,42.76,0,0,1,32.39,525l-3.32-8.75L20,490.55c-.35-1-.73-2-1.14-2.92L13,474a46,46,0,0,0-3.53-6.7L8,464.89a2.88,2.88,0,0,0-1.15-1l-1.21-.61a4.83,4.83,0,0,0-2.1-.49,2.61,2.61,0,0,0-2.18,1.16,6.4,6.4,0,0,0-1,2.95l-.07.75c-.07.71-.13,1.42-.17,2.13A32.91,32.91,0,0,0,1.12,480l3.5,10.53,6.86,24.76q.66,2.4,1.52,4.74l7.29,20-.42,14v29.25l.21,19.84-.24,6.52a54.06,54.06,0,0,0,.42,9.08l1.2,9.1q.3,2.25.78,4.47l2.65,12.2,1,6.27-2.24,10.86a23.44,23.44,0,0,0-.47,4.65v.42a46.7,46.7,0,0,0,.8,8.59l.66,3.47.21,16.09.58,30.49a49.43,49.43,0,0,1-.16,5L22.8,761.07l-5.43,45.75-3.14,33L8,885.79,6.64,899.32a125.49,125.49,0,0,0-.39,19.77l.67,11.62L7.85,950c.08,1.64.1,3.28.06,4.93L7.34,980,5.92,999.24c-.17,2.22-.26,4.45-.29,6.67l-.13,11a48.31,48.31,0,0,0,.33,6.36l.25,2.1A67.21,67.21,0,0,0,8.2,1036l.45,1.57c.38,1.32.8,2.64,1.26,3.94l2,5.52c.45,1.28,1,2.55,1.52,3.8a38,38,0,0,0,4.7,7.81,78.41,78.41,0,0,1,6.69-17.52Z"/><path class="cls-6" d="M277.6,970.53,251.11,977l-26.88,7.7a47.73,47.73,0,0,0-4.8,1.66l-10.24,4.16q-2.4,1-4.69,2.16L195,997.53a58.41,58.41,0,0,0-7.39,4.55l-5.12,3.72a64.3,64.3,0,0,0-8.43,7.28l-5.44,5.59a65.16,65.16,0,0,0-5.31,6.19l-4.86,6.46c-1.49,2-3.07,3.88-4.74,5.7l-4.13,4.52q-2.1,2.3-4.39,4.39l-5.28,4.82-2.06-8.6a53,53,0,0,0-1.86-6.06l-2.28-6c-.26-.7-.54-1.39-.84-2.08l-5.65-12.81-4.94-11.36A61.85,61.85,0,0,1,118,986l-.06-.7c-.08-1-.14-2-.16-2.93a47.89,47.89,0,0,1,.63-9.19h0a29.8,29.8,0,0,1,1.85-6.48,47.64,47.64,0,0,1,4.5-8.46,56.23,56.23,0,0,0,3.47-6L127.5,950l-2.67,1.46-3.84,2.1a108.52,108.52,0,0,0-14.07,9.18c-1,.77-2,1.58-2.91,2.44l-4.44,4.07c-.79.72-1.59,1.42-2.42,2.09L91.37,976,80.69,984.2,66.51,996.05l-3.2,2.58A90.4,90.4,0,0,0,52.43,1009l-.84,1-1.46,1.72L62.25,1022l9.92,7.94,19.64,15.86,20.12,15.89q2.49,2,5.14,3.72l2.59,1.72a78.69,78.69,0,0,0,17.59,8.69l.38.13,1.22-6.11a13.41,13.41,0,0,1,1.2-3.48,38.87,38.87,0,0,1,4.7-7.26l.78-1a49.57,49.57,0,0,1,8.11-7.88h0a57.88,57.88,0,0,1,9-5.7l3.38-1.73,4-2.62a35.35,35.35,0,0,1,7-3.49h0a58.86,58.86,0,0,1,10.29-2.72l2-.34a38.16,38.16,0,0,1,6.49-.55c1.66,0,3.31.08,5,.23l8.27.77a54.62,54.62,0,0,1,12.32,2.6l.15,0,9-9.23,38.29-37.07,16.49-17.11c1.62-1.68,3.3-3.3,5-4.88l-8.73,1.26C280.28,969.94,278.93,970.2,277.6,970.53Z"/><path class="cls-7" d="M209.07,1034.12l-8.27-.77c-1.65-.15-3.3-.23-5-.23a38.16,38.16,0,0,0-6.49.55l-2,.34a58.86,58.86,0,0,0-10.29,2.72h0a35.35,35.35,0,0,0-7,3.49l-4,2.62-3.38,1.73a57.88,57.88,0,0,0-9,5.7h0a49.57,49.57,0,0,0-8.11,7.88l-.78,1a38.87,38.87,0,0,0-4.7,7.26,13.41,13.41,0,0,0-1.2,3.48l-1.22,6.11-.38-.13a78.69,78.69,0,0,1-17.59-8.69l-2.59-1.72q-2.66-1.76-5.14-3.72l-20.12-15.89L72.17,1030,62.25,1022l-12.12-10.34-5.71,6.76-5.19,6.51q-1.68,2.11-3.21,4.35l-.73,1.07a102.65,102.65,0,0,0-6.74,11.39l-1.11,2.2q-1.15,2.27-2.13,4.62a23.82,23.82,0,0,0-1.77,7.58,3,3,0,0,0,.07.89A133.15,133.15,0,0,0,28,1071.41c.21.56.44,1.11.68,1.66l1.91,4.18a126.47,126.47,0,0,0,6.7,12.73l3.6,6,1.14,1.75a173.77,173.77,0,0,0,16.7,21.79l3.51,3.51a110.64,110.64,0,0,0,10.87,9.53h0a51.21,51.21,0,0,0,6.37,4.16,57.27,57.27,0,0,0,11.38,4.75l2.55.75a111.71,111.71,0,0,0,11.83,2.81l11.85,2.14,4.23.59a150.62,150.62,0,0,0,20.9,1.45h10.27l4.57-16a113.17,113.17,0,0,1,4.24-12.18l5.88-14.23q1.19-2.88,2.54-5.68l2.79-5.79a102.15,102.15,0,0,1,5.43-9.83l1.73-2.77q2.59-4.17,5.58-8.09h0a136.6,136.6,0,0,1,15.5-17.19l6.64-6.2,14.13-14.43-.15,0A54.62,54.62,0,0,0,209.07,1034.12Z"/><path class="cls-8" d="M342.89,1135.24l6.23-14.57a69,69,0,0,0,2.57-7.09l3.71-12.37a66.61,66.61,0,0,0,1.78-7.51l1.61-9.12a63.79,63.79,0,0,0,.88-7.68l1.1-20.28q.17-3.09,0-6.18l-.53-12.17-.82-12.3-1.55-14.15c-.17-1.51-.28-3-.35-4.54l-.66-16.36q-.06-1.54-.21-3.09l-.92-9.76a103.57,103.57,0,0,1-.43-12.2l.39-16.19a102.17,102.17,0,0,1,.78-10.49L358,927.51l.21-1.47c.29-2.65.64-5.3,1.07-7.93l.58-3.55.6-4.19c.33-2.24.73-4.48,1.22-6.69l1.44-6.62a96.11,96.11,0,0,1,6.08-18.55l3.89-8.75,1.49-3.8a98.3,98.3,0,0,1,7.07-14.47l.39-.67c1-1.91,2-3.8,3.05-5.66l3.41-5.88,2.31-3.59,5.62-10.16c.63-1.15,1.29-2.27,2-3.38h0a54.59,54.59,0,0,1,9.46-11.35c-1.06.39-2.12.8-3.16,1.26l-3.25,1.42,5.62-7.42q2.51-3.31,4.83-6.76l4.55-6.77,3-4.79-10.91,4.81-11.3,4.38-5.54,7.38L384,815.18q-1.47,2.05-3,4l-3.24,4a92.62,92.62,0,0,0-6,8.31l-3.9,6.06L362.19,847l-.46,6.23-4.43,10.26-.12-.11c-.49,1.18-1,2.36-1.53,3.52l-4.36,9.45L343.58,894c-1,2.37-2.14,4.71-3.32,7l-11,21.43q-2.37,4.62-5.09,9.06h0a102.74,102.74,0,0,1-10.41,14.14l-1.4,1.6A143.09,143.09,0,0,1,301.84,958l-3.71,3.42-6.53,5.87-1.23,1.16c-1.71,1.58-3.39,3.2-5,4.88l-16.49,17.11-38.29,37.07-9,9.23-14.13,14.43-6.64,6.2a136.6,136.6,0,0,0-15.5,17.19h0q-3,3.92-5.58,8.09l-1.73,2.77a102.15,102.15,0,0,0-5.43,9.83l-2.79,5.79q-1.35,2.81-2.54,5.68L161.32,1121a113.17,113.17,0,0,0-4.24,12.18l-4.57,16H142.24a150.62,150.62,0,0,1-20.9-1.45l-4.23-.59L105.26,1145a111.71,111.71,0,0,1-11.83-2.81l-2.55-.75a57.27,57.27,0,0,1-11.38-4.75,51.21,51.21,0,0,1-6.37-4.16h0A110.64,110.64,0,0,1,62.26,1123l-3.51-3.51a173.77,173.77,0,0,1-16.7-21.79L40.91,1096l-3.6-6a126.47,126.47,0,0,1-6.7-12.73l-1.91-4.18c-.24-.55-.47-1.1-.68-1.66A133.15,133.15,0,0,1,23.61,1057a3,3,0,0,1-.07-.89,23.82,23.82,0,0,1,1.77-7.58q1-2.35,2.13-4.62l1.11-2.2a102.65,102.65,0,0,1,6.74-11.39l.73-1.07q1.53-2.24,3.21-4.35l5.19-6.51,5.71-6.76,1.46-1.72.84-1a90.4,90.4,0,0,1,10.88-10.37l3.2-2.58L80.69,984.2,91.37,976l5.78-4.69c.83-.67,1.63-1.37,2.42-2.09l4.44-4.07c.93-.86,1.9-1.67,2.91-2.44A108.52,108.52,0,0,1,121,953.54l3.84-2.1L127.5,950l-.38-1.14,20.43-14.18a126.48,126.48,0,0,0,26.69-25l-.43.41-3.69,3.29-13.24,10.79a113.57,113.57,0,0,1-11.36,8.15l-19.14,12-9.82,7-8,5.66L87.83,972.7l-10,8a160.81,160.81,0,0,0-12.34,11l-8.5,8.41q-1.7,1.68-3.31,3.45l-8.07,8.91a174.42,174.42,0,0,0-12.89,16.05l-1.66,2.33a89.41,89.41,0,0,0-6.19,10.07l-.11.23a78.41,78.41,0,0,0-6.69,17.52,52,52,0,0,0,.41,14.47l1.19,7,1.84,8.87a111.72,111.72,0,0,0,3.78,13.83l2.73,7.93c.43,1.25.91,2.48,1.43,3.7l2.5,5.85a124.1,124.1,0,0,0,6.68,13.29,68.41,68.41,0,0,0,5.55,8.15,79.07,79.07,0,0,0,9.22,9.79l1,.92a43.74,43.74,0,0,0,4.77,3.7h0a76.32,76.32,0,0,0,14.45,7.53h0a61.3,61.3,0,0,0,8.8,2.71h0a102.32,102.32,0,0,0,16.79,2.42l2.92.18,9.7.28q2.4.06,4.8,0l10.39-.28,7.09-.35-.15,1H327.33l6.86-15.64Z"/><path class="cls-8" d="M447.26,795.46l1.2.1a28.75,28.75,0,0,1,3.57.54c-1.69-1-3.39-1.94-5.11-2.85l-2-1-3.1-2-6.15,5.36,2.68-.19A58.63,58.63,0,0,1,447.26,795.46Z"/><path class="cls-8" d="M482.65,821.36a75.25,75.25,0,0,0-7.89-6.37,16.47,16.47,0,0,0-4.13-2.12,32.35,32.35,0,0,0-11-1.79l-1.88,0c-1.59,0-3.18.11-4.76.24l.43.16c1.08.4,2.16.82,3.23,1.29l1.71.8a76.89,76.89,0,0,1,9.21,5c1.32.84,2.61,1.72,3.89,2.63l5.4,3.89,4.41,3.09,5.85,4.09,6.94,4.25.38.23,0,0a130.58,130.58,0,0,0-9.15-13Z"/><path class="cls-8" d="M404.05,1140.39l-1.24-7.25a142.48,142.48,0,0,1-1.85-16.86l-.2-4.06c-.09-1.79-.13-3.59-.11-5.39l.16-16.16.19-7.23.53-.69a41.72,41.72,0,0,0,5.38-9.22l5-11.49c.59-1.35,1.14-2.73,1.63-4.12l.86-2.46a43.13,43.13,0,0,0,1.44-5.08l.52-2.33a62.41,62.41,0,0,0,1.31-9.32l.26-4.16-10.55-13.15-9.59-12.32-8.95-11.92-10.23-13.27-1.3-1.79c-.43-.58-.84-1.17-1.25-1.76l-1,21-.46,32.08c0,1.26-.08,2.51-.17,3.77l-2.16,28.31-2,20.4a63.89,63.89,0,0,1-1,6.73L366.13,1108c-.29,1.41-.62,2.82-1,4.21l-6.69,24.69c-.41,1.51-.87,3-1.39,4.48l-9.73,28.14,0,0h60.78l-1.55-12.82Z"/><path class="cls-8" d="M198.34,887.24l6-10.9L198,883.21a48.1,48.1,0,0,0-3,5.14L188.1,902c-.53,1.05-1.09,2.08-1.68,3.1.33-.39.69-.77,1-1.16,1.37-1.67,2.8-3.28,4.28-4.85l.55-.58a22.85,22.85,0,0,1,1.23-2.6Z"/><path class="cls-8" d="M213.91,872.59l-4.35,6.87-.89,1.72q3.15-3.39,6.13-6.94l5.81-7,1.3-1.82-.14-.07-.94-.47-.38-.82-2.19,2.34Z"/><path class="cls-5" d="M541.13,973.05a58.68,58.68,0,0,0-5.7-9.17l-1.91-2.53A98.14,98.14,0,0,0,525.4,952l-1.76-1.8a114.53,114.53,0,0,0-9.59-8.7,60.81,60.81,0,0,0-8.29-5.64A109.63,109.63,0,0,0,494,930.06a57.87,57.87,0,0,0-11.06-3.37,85,85,0,0,0-11.57-1.51,42.84,42.84,0,0,0-7,.15,63.63,63.63,0,0,0-14.73,3.32,17.48,17.48,0,0,0-3.73,1.84h0a64.58,64.58,0,0,0-8.84,6.87h0A38.39,38.39,0,0,0,430.7,945l-.06.1a92.62,92.62,0,0,0-7.89,15.66h0a53.53,53.53,0,0,0-2,6.18l-1.16,4.54c-.34,1.35-.65,2.71-.91,4.08l-1,5.38c-.44,2.28-.78,4.58-1,6.89l-.05.53a74.29,74.29,0,0,0-.44,9.55l0,2.76a75.86,75.86,0,0,0,.58,8.11l.34,2.66c.2,1.5.32,3,.39,4.53l.52,11.94a63.59,63.59,0,0,1-.06,6.62h0l-.26,4.16a62.41,62.41,0,0,1-1.31,9.32l-.52,2.33a43.13,43.13,0,0,1-1.44,5.08l-.86,2.46c-.49,1.39-1,2.77-1.63,4.12l-5,11.49a41.72,41.72,0,0,1-5.38,9.22l-.53.69-.19,7.23-.16,16.16c0,1.8,0,3.6.11,5.39l.2,4.06a142.48,142.48,0,0,0,1.85,16.86l1.24,7.25,2.48,16.38,1.55,12.82H520.83l.93-2.35,5.52-14.28,1.72-9.34,1.33-9.14-.76-14.86L527.28,1096,524,1080l-1.9-13.72-1.91-8a18,18,0,0,0,4.61-5.5l.82-1.52c.7-1.28,1.44-2.55,2.23-3.78l.6-.94q2.6-4.07,4.85-8.33l1-2q2.25-4.26,4.09-8.7l1-2.48a112.7,112.7,0,0,0,5.25-15.88h0q.63-2.54,1.08-5.1h0a45.83,45.83,0,0,0,.63-6,52.28,52.28,0,0,0-.63-10.38c-.13-.85-.27-1.7-.45-2.55A50.16,50.16,0,0,0,541.13,973.05Z"/><path class="cls-7" d="M225.41,845.48l-.12-2.07c0-.28,0-.57,0-.85l-5.85,6-.13.14c.49-.29,1-.57,1.48-.83Z"/><path class="cls-7" d="M320.61,804.26l-5.68,5.68,1.54,1.24c.88-1.27,1.7-2.59,2.46-3.94Z"/><path class="cls-7" d="M310.19,814.68q-1.87,1.88-3.87,3.61l-6,5.23,1.3,5.11a20.81,20.81,0,0,1,.64,5.88,22.55,22.55,0,0,1-1.2,6.5q-1.05,3.06-2.36,6a84.1,84.1,0,0,1,6.08-6l8.74-7.82,7.06-5.89,3.3-4.2-9.83,1.64-.41-9.84c1-1.16,1.88-2.37,2.75-3.61l-1.62-.16-.94-.11-.4.4Z"/><path class="cls-7" d="M129,954.34,147,943q3.47-2.18,6.69-4.66l8.09-6.2a93.69,93.69,0,0,0,8.51-7.41l3.8-3.73a73,73,0,0,0,9-10.66l.74-1.08c.93-1.34,1.79-2.72,2.61-4.13.59-1,1.15-2,1.68-3.1l6.9-13.68a48.1,48.1,0,0,1,3-5.14A47.52,47.52,0,0,1,205,875.1l-.67,1.24-6,10.9-4.85,8.7A24.1,24.1,0,0,0,191,902.7h0a61.34,61.34,0,0,0-1.14,11.79,50.19,50.19,0,0,0,5.85-1.72l11.09-4-9.58,6.72q-3.47,2.44-6.71,5.17l-8.44,7.12-10.76,10.07,2.06,3.44.39.37a57.4,57.4,0,0,0,12.34,9.05l.78.42,3.66-4.8,6.19-8.25,3.57-4.38a97.41,97.41,0,0,1,7.53-8.2l2.87-2.76,1.57-1-.17-.41a11.25,11.25,0,0,0-5.76-4.18l-.57-.18,11.78-8.07,10.13-7.47a69.11,69.11,0,0,0,6.05-5l5.69-5.31c.82-.78,1.63-1.58,2.4-2.4l6-6.39-6.53,1.18a70,70,0,0,1-11,1.12l-2.48,0L225.13,887l-16.71,7.33-6.87,3.21,1.6-5.27,2.75-5.73,2.77-5.37.89-1.72,4.35-6.87,4.35-6.19,2.19-2.34-1.16-2.5a36,36,0,0,1-2.87-9.73l-11.82,13a20.58,20.58,0,0,0-1.44,1.77l-8.83,12.08c-1.14,1.56-2.24,3.15-3.28,4.77l-7.14,11.08-7.07,11.51a30.62,30.62,0,0,1-2.06,3h0c-.18.23-.37.44-.54.66a126.48,126.48,0,0,1-26.69,25l-20.43,14.18.38,1.14.76,2.28Z"/><path class="cls-7" d="M243.89,936.67a56.87,56.87,0,0,0-3.58,12.39l-1,5.74,2.75.46,8.47-8.25,2.61-8.33c.55-1.77,1.17-3.53,1.84-5.26l1.74-4.5,2.33-5.64a101.94,101.94,0,0,1,7.52-14.67l1.6-2.59,5.26-8.93.55,10.77c.09,1.83.27,3.65.53,5.45l.66,4.65a5.68,5.68,0,0,0,2.12,3.66.85.85,0,0,0,.6.17,18.86,18.86,0,0,0,4.27-.89c.9-.3,1.79-.64,2.66-1l5.56-2.41,7.27-3.46a44.8,44.8,0,0,0,4.55-2.51l10.17-6.4,7.21-5c1.14-.79,2.26-1.63,3.34-2.5l4-3.24a69.11,69.11,0,0,0,9.38-9.2l4.22-5,5.5-6.87,3-3.55a8.17,8.17,0,0,0,1.85-4.46,25.52,25.52,0,0,0-3.94-2.83,74.1,74.1,0,0,0-24.75-9,63.46,63.46,0,0,0-15.08-.73l-5.47.38-6.41.8a52.83,52.83,0,0,1-4.68,6.63,86.79,86.79,0,0,1,13.39-.33l2,.12c1.38.07,2.76.19,4.14.35a54.94,54.94,0,0,1,14.58,3.82,13.64,13.64,0,0,1,4.22,2.74l2.49,2.36-3.89,4.12-4.28,4.71a68,68,0,0,1-5.49,5.38l-3.43,3a90.73,90.73,0,0,1-13.42,9.71l-4.75,2.81a45.46,45.46,0,0,1-11.68,4.86l-.76-3.14c-.72-2.94-1.29-5.92-1.72-8.92l-1.42-9.93-2.6,6.67-3.27,3-1.09,3.71-5.23,1.09-5.51,11.53c-1,2-2,4-3.2,6L257,918.74l-5.41.67-.18,0c-1,2-2,4.05-2.9,6.14Z"/><path class="cls-9" d="M273.86,798.25a3.08,3.08,0,0,1,2.27,2l.73,2.08H281l1.48-2.62c-.65-.36-1.31-.7-2-1.07l-3.37-1.9c-1.09-.61-2.15-1.26-3.22-1.9l-2.06,3Z"/><path class="cls-9" d="M300.33,823.52l6-5.23q2-1.74,3.87-3.61l3.25-3.25.4-.4a59.93,59.93,0,0,1-10.7-2.19q-.52,3.46-1.21,6.89Z"/><path class="cls-9" d="M314.06,824.75l9.83-1.64-3.3,4.2-1.21,1.54,4.46,4.74c1.26,1.34,2.59,2.63,4,3.85l3.43,3a19.81,19.81,0,0,0,2.66,2,64.89,64.89,0,0,1,12.35,10l.38.39,10.54,10.55.12.11,4.43-10.26.46-6.23,5.54-9.46,3.9-6.06a92.62,92.62,0,0,1,6-8.31l3.24-4q1.57-1.95,3-4l7.76-10.87,5.54-7.38,11.3-4.38,10.91-4.81,7.92-12.61,4.15-7a51.13,51.13,0,0,0-3.37-8.14l-2.59-5c-.58-1.11-1.13-2.23-1.64-3.38l-3.07-6.84q-1.23-2.74-2.31-5.55l-3.38-8.83c-.57-1.47-1.2-2.92-1.89-4.33l-3.11-6.41L408.74,717a16,16,0,0,0-2.72-3.62l-.8-.81a15.75,15.75,0,0,0-4.48-3.14,10.48,10.48,0,0,0-2.95-.89l-1.19-.44h0l.24,19.59L394,730.2a58.63,58.63,0,0,1-7.29,5.55h0a72.36,72.36,0,0,1-6.79,3.87l-8.24,4.12q-2.1,1.05-4.28,2l-2.69,1.11a80.22,80.22,0,0,0-11.06,5.6h0a26.07,26.07,0,0,0-2.21,1.51l-.57.43a66.42,66.42,0,0,0-7.72,6.89,20.65,20.65,0,0,0-2.26,2.85l-4.3,6.55-7.16,10.84-7.38,10.85-3.69,5.76L320,783.32l1.61-17.3.15-3.65a6.12,6.12,0,0,0-.92-3.49l-.15-.25-1.83-1.13a80.36,80.36,0,0,0-10.1-5.32l-.79-.35a61.34,61.34,0,0,1-6.66-3.4l-.69-.41-2.86-15.56-5.24-2.52-1.95,2a19.3,19.3,0,0,0-2.56,3.28h0a17.36,17.36,0,0,0-2.18,5.31h0c-.24,1.08-.46,2.16-.63,3.25L284,750.85,282.81,761l-1.09,7.1a65.29,65.29,0,0,1-1.42,6.78l-.73,2.72-.32,1,.59.55,3.62,3.24,5.69,5.58c1.6,1.57,3.24,3.09,4.91,4.59a26.37,26.37,0,0,1,5.18-1.45h0a2.41,2.41,0,0,1,1.75.38,5.49,5.49,0,0,1,2.31,3.33l.25,1.07a19.58,19.58,0,0,1,.5,5.11l6.28,5.21,4.6,3.71,5.68-5.68-1.68,3c-.76,1.35-1.58,2.67-2.46,3.94l.17.14-.24,0c-.87,1.24-1.78,2.45-2.75,3.61Z"/><path class="cls-10" d="M225.26,842.56c0,.28,0,.57,0,.85l.12,2.07-4.65,2.37c-.5.26-1,.54-1.48.83s-.75.47-1.12.72l-1.91,1.31c0,.38.12.75.17,1.12a36,36,0,0,0,2.87,9.73l1.16,2.5.38.82.94.47.14.07a42.26,42.26,0,0,0,5.1,2.14l3,1-.36.83a10.57,10.57,0,0,1-2.78,3.8l-1.44,1.26-3.65,2.85a8.23,8.23,0,0,0-2.19,2.61,5.38,5.38,0,0,0-.51,3.65l.24,1.13h6.76l1.78,0,2.48,0a70,70,0,0,0,11-1.12l6.53-1.18-6,6.39c-.77.82-1.58,1.62-2.4,2.4l-5.69,5.31a69.11,69.11,0,0,1-6.05,5l-10.13,7.47L205.78,917l.57.18a11.25,11.25,0,0,1,5.76,4.18l.17.41,0,.06A46.52,46.52,0,0,1,215,930.3l.58,2.61,8.53-6.33a54.27,54.27,0,0,0,6.09-5.24l5.43-5.44,3.37,1.28a48.85,48.85,0,0,0,6,1.86,18.27,18.27,0,0,0,6.38.39l.18,0,5.41-.67,2.63-4.48c1.16-2,2.22-4,3.2-6l5.51-11.53,5.23-1.09,1.09-3.71,3.27-3,2.6-6.67-.06-8.54-3.58-1.42a177.19,177.19,0,0,1-35.25-18.78,134.64,134.64,0,0,1-16.47-13.36v0C225.19,840.94,225.22,841.75,225.26,842.56Z"/><path class="cls-10" d="M290.53,860.55a52.83,52.83,0,0,0,4.68-6.63q.87-1.45,1.65-3c.65-1.28,1.26-2.59,1.85-3.92q1.31-3,2.36-6a22.55,22.55,0,0,0,1.2-6.5,20.81,20.81,0,0,0-.64-5.88l-1.3-5.11,1.6-7.79q.69-3.42,1.21-6.89c-1.76-.53-3.5-1.13-5.2-1.82a153.79,153.79,0,0,1-15.46-7.33L281,802.31h-4.14l-.73-2.08a3.08,3.08,0,0,0-2.27-2l-2-.42h0a15.49,15.49,0,0,0-3.11-.32h-3.66l-2,2.29a30.52,30.52,0,0,1-3.59,3.42l-3,2.42,3,5.68,16.08,28.29,13.8,22.4.83-1Z"/><path class="cls-10" d="M303.55,795.91l-.25-1.07a5.49,5.49,0,0,0-2.31-3.33,2.41,2.41,0,0,0-1.75-.38h0a26.37,26.37,0,0,0-5.18,1.45c1.45,1.3,2.92,2.58,4.42,3.82l5.57,4.62A19.58,19.58,0,0,0,303.55,795.91Z"/><path class="cls-11" d="M693,620.72l-14.84-17-14.81-16.8A108.77,108.77,0,0,1,655,576.14l-9.09-13.32-8.53-11.68L629,539.86a85.22,85.22,0,0,1-5.69-8.76l0-.07-2-7.84-3.93-15.08q-1.1-4.23-1.81-8.54L614,490.33c-.25-1.56-.47-3.12-.64-4.68l-2.09-18.77c-.31-2.81-.76-5.61-1.35-8.38l-2.61-12.3a85.61,85.61,0,0,0-3.58-12.26l-2-5.27L598,417.61c-.41-1.2-.86-2.39-1.33-3.57l-10.35-25.58-1.16-2.88-6.63-16.33c-.57-1.4-1.18-2.79-1.82-4.17l-8.08-17.24-4.68-9.57a104.51,104.51,0,0,0-9.82-16.17l-1.19-1.61-5.3-6.53a77.85,77.85,0,0,0-15.74-14.65q-2.49-1.74-5.13-3.24a62.75,62.75,0,0,0-16.28-6.41l-.71-.17a27.52,27.52,0,0,0-5-.67l-4.95-.18a60.54,60.54,0,0,0-6.32.09l-5.54.37a33.67,33.67,0,0,0-6.62,1.11l-5.6,1.53-3.45,1.06a64,64,0,0,0-9.67,3.89L456,300l-7.24,4-.32.05a29.32,29.32,0,0,1,2.77,2.69l4.65,5.2,4.5,5.52,5.7,7.6q2.89,3.85,5.51,7.91l4.06,6.28q1.9,3,3.62,6.06l2.55,4.59q2.09,3.77,3.86,7.7L490.81,369l6.7,15.22a21.53,21.53,0,0,1,1.33,4.07,109.8,109.8,0,0,1,2.61,21.83v3.65a10.63,10.63,0,0,1-1.11,4.72c-.57,1.14-1.19,2.27-1.85,3.36l.2,0,1.55,2.76,1.67,3.34c.62,1.22,1.19,2.46,1.74,3.72l3.15,7.26,3.46,8.92c.69,1.76,1.31,3.54,1.89,5.34l7.25,22.67,9.14,24.84,1.84,5.69a57.73,57.73,0,0,1,2.28,10.23l.18,1.48c.36,2.78.84,5.54,1.47,8.27l1.52,6.71-5.61-9.76-8.69-16-7-18.28L508.8,475.5c-1.09-2.56-2.27-5.07-3.52-7.55l0-.31c-.13-1.78-.31-3.56-.55-5.33l-.5-3.56-.86-8.62a43.13,43.13,0,0,0-1.64-7.11l-.6-1.87-1.57-5.79q-.68-2.49-1.56-4.91l-2.91-7.93.52-.1-4-10.25-3.07-7.77-1.62-.57a13.12,13.12,0,0,0-3.83-.73L480,403a123.37,123.37,0,0,1-10-20.56l-1.5-4-2.33-6a61,61,0,0,0-2.59-5.78l-1.41-2.74a25.64,25.64,0,0,0-3.52-5.21A133,133,0,0,1,449.57,347l-.27-.4c-1-1.4-1.89-2.82-2.78-4.26l-3.79-6.15q-1.43-2.32-3-4.53a104.78,104.78,0,0,0-9-10.92l-2.28-2.42a37.17,37.17,0,0,0-3.12-10.18l-.07-.15-.43.07-4.27-6.85c-.44-.7-.89-1.4-1.36-2.08a61,61,0,0,0-3.91-5.14,29.46,29.46,0,0,0-6.44-5.66l-2.79-1.8a87.74,87.74,0,0,0-9.55-5.37L394.16,280a82.9,82.9,0,0,0-10-4.05l-.78-.26a70.11,70.11,0,0,0-10.48-2.61L364,271.61l-12.23-1.53a80.86,80.86,0,0,0-10.2-.64H333.7l-6.78.11a70.63,70.63,0,0,0-12.3,1.3l-3.86.76L299.08,274h-5.41l-6.87-.26a81,81,0,0,0-9.61.21l-8.62.69-6.76.91a78.58,78.58,0,0,0-12.23,2.63l-9.14,2.74L237.2,282l-2.43.81a80.18,80.18,0,0,0-10.42,4.31l-9.66,4.83-13.8,7.44c-2,1.1-4,2.29-6,3.55l-4.33,2.82a111.1,111.1,0,0,0-13.29,10.18l-6.08,5.44-4,3.91a75.69,75.69,0,0,0-11.15,13.83l-.7,2.12-1.28,1a120.89,120.89,0,0,0-12.3,11.43,36,36,0,0,0-3.34,4.14l-4.67,6.77-2.83,4.11q-2.48,3.6-4.67,7.37a114.42,114.42,0,0,0-5.84,11.47l-2,4.48q-2.11,4.79-3.81,9.72l-2.22,6.43-1.54,4.4q-1.87,5.32-3.39,10.75l-4.16,14.91-4.56,18c-.58,2.31-1.1,4.63-1.54,7l-.55,2.9q-1.19,6.21-1.81,12.52l-1,10.24c-.26,2.61-.43,5.24-.52,7.86l-.28,8q-.21,6.24.07,12.47l.35,7.54.86,9.46.13,1.4L95.63,546l-2.83,24.8-3.45,22.3q-.54,3.51-1.42,6.94l-6,23.37-3.66,14.82-5,18.14L69,673.47,65.12,691.1c-.85,3.89-1.58,7.81-2.16,11.75l-1.62,10.9-1,8.87a129.71,129.71,0,0,0-.85,16.94l0,3,.2,5.7q.13,3.79.6,7.55l.12,1a70.41,70.41,0,0,0,3.34,14.46l1.07,3.1,2.54,7.38c.63,1.85,1.33,3.68,2.08,5.49l1.73,4.15a100.32,100.32,0,0,0,7,13.7l2,3.24,3.91,6.05q3.38,5.19,7.17,10.1a.64.64,0,0,1,.1.13,105.86,105.86,0,0,0,9.3,10.44h0a118.59,118.59,0,0,0,11.64,10.06l1.5,1.14c2.22,1.69,4.51,3.3,6.84,4.83l3.41,2.23q3.24,2.13,6.6,4.07l7.3,4.22,1.44.81a80.63,80.63,0,0,0,16.19,6.92l-4.3-5.14q-1.42-1.71-2.75-3.49L141,850.6l-5.23-6.47q-3-3.72-5.69-7.69l-6-8.88-4.28-7q-2-3.28-3.68-6.75l-.77-1.58a103.81,103.81,0,0,1-4.54-10.84l-2.55-7.21c-.71-2-1.37-4-2-6.1l-.12-.44a119,119,0,0,1-3.63-17.52l-.17-1.34c-.33-2.57-.56-5.17-.69-7.76l-.45-8.91q-.2-3.81-.11-7.62l.2-9.45.34-9.09a98.36,98.36,0,0,1,1.06-11.09l2.5-16.26,3.08-20.67,2.51-16.33,3-16.67,1.47-8.18,3.35-20.25,2.09-11.72,5.16,10q1.82,3.54,4,6.89l1.54,2.39q2.07,3.21,4.39,6.25l2.07,2.71,2.83,4.08L142,642.9q.6,2.73,1,5.48l3.9,28.8,4.85,25.71c.83,4.43,1.82,8.84,3,13.2l2,7.5q1,3.87,2.24,7.66l.87,2.69q3.39,10.41,7.77,20.44l2.9,6.63a227,227,0,0,0,14.15,27.2l1,1.61q4.67,7.65,10,14.83l7.45,9.93L211.43,825q3.84,4.8,8,9.3l.9.93q2.35,2.47,4.83,4.83a134.64,134.64,0,0,0,16.47,13.36,177.19,177.19,0,0,0,35.25,18.78l3.58,1.42q4,1.58,8.07,2.92l13.22,4.36-8.95-13.24L289.32,862l-13.8-22.4-16.08-28.29-3-5.68-7.39-14.07-4.77-9.82q-1.95-4-4.17-7.89l-6.33-11,6.74,6.6q3.24,3.18,6.72,6.08l3.9,3.24a124.85,124.85,0,0,0,10,7.56l8,5.45c1.54,1.05,3.12,2.05,4.71,3,1.07.64,2.13,1.29,3.22,1.9l3.37,1.9c.65.37,1.31.71,2,1.07A153.79,153.79,0,0,0,297.94,807c1.7.69,3.44,1.29,5.2,1.82a59.93,59.93,0,0,0,10.7,2.19l.94.11,1.62.16.24,0-.17-.14-1.54-1.24-4.6-3.71L304.05,801l-5.57-4.62c-1.5-1.24-3-2.52-4.42-3.82-1.67-1.5-3.31-3-4.91-4.59l-5.69-5.58-3.62-3.24-.59-.55a120.59,120.59,0,0,1-10.9-11.25L265.48,764q-4.41-5.19-8.41-10.72l-9.43-13-2.11-3.1q-3.79-5.61-7.29-11.43l-7.17-12-2.72-5.56,6.26,2.81L225,701.47l-4.19-8.55-7.29-15.64c.74.32,1.49.6,2.26.85l4.41,1.4,5.83,1.89-1.31-1.54a85.8,85.8,0,0,1-9.37-13.55l-2.61-4.66a85.42,85.42,0,0,1-4.36-9l-.45-1.09a54.93,54.93,0,0,1-3.61-13.39l-.67-4.88-4.75-8-4.48-7.6,11,7.87,4.48,2.85a71,71,0,0,1-7.83-16.77L201,608l-4.16-13.81a60.16,60.16,0,0,1-1.6-6.65l-1.57-8.69a73.79,73.79,0,0,1-1-7.4L191.38,556c-.12-1.5-.19-3-.22-4.52L190.84,532q0-3.07.07-6.15l1-26.09L193.1,472l3.26,9A120,120,0,0,0,202,494.13l.79,1.6A112.66,112.66,0,0,0,210,508l2.94,4.38,1.89,2.82a104.76,104.76,0,0,0,11.26,14l5.16,5.41,4.65,4.89a102,102,0,0,0,12.2,10.94l2.68,2q3.25,2.49,6.74,4.66l10.22,6.37,7.12,4.92a84.23,84.23,0,0,0,11.82,6.84l7.78,3.7,13.43,9.23,7.75,5.89c1.62,1.23,3.27,2.4,5,3.53l5.2,3.46-6.24-8.41-11.4-15.19,8.55,6.24,2.85-14.16c.27-1.32.49-2.65.67-4l3.67-27.43L326.43,520l2-21.43,1.22-18.86,1.32,13a59.7,59.7,0,0,1,.32,6l.12,27.12.41,24.42-.54,17-.55,14,5.87-15.41a78.63,78.63,0,0,0,2.89-9.25l2.91-11.83,3-12.81c.54-2.31,1-4.65,1.29-7l1.28-9.36,1.36-12.47.75,11.24q.19,3,.18,6l-.12,21,.41,15.87.4,18,4.21-13.7,5.29-18.72,2.81-9.8a91.81,91.81,0,0,0,2.25-9.82l1.84-10.62q.56-3.27.84-6.57l.94-11.34.54-12.25c.09-2.14.1-4.29,0-6.44l-.55-14.28,4.29,9.08a106.56,106.56,0,0,0,5.88,10.81,44.81,44.81,0,0,0,2.7,3.88L388,493.1l4.29,5c1.45,1.69,3,3.32,4.57,4.88l6,6,3.44,3.2a181.31,181.31,0,0,0,14.05,11.75l4.33,3.26,11.18,7.77,10.54,6.75L448.16,556l1.11,14.42.38,8.05c.18,3.63.2,7.27.06,10.9l-.35,9.34-.35,8.55c-.07,1.88-.22,3.75-.42,5.62l-1,9c-.15,1.34-.33,2.67-.54,4s-.45,2.67-.73,4l-1.86,9.06L442.68,646a95.83,95.83,0,0,1-2.83,9.25l-1,2.84L435,667.83l-4.9,12,5.11-4.73a119.17,119.17,0,0,0,11.32-12l4.31-5.28a111.28,111.28,0,0,0,7.64-10.54l3.23-5q2-3,3.65-6.24l3.3-6.18q1.56-2.92,3-5.93l1.5-3.21q2.1-4.51,3.81-9.17l1.34-3.66.18,15.35-.55,17.1-.82,10.38q-.28,3.76-.83,7.5l-.87,6a104.68,104.68,0,0,1-2.23,11.23l-2.09,8.22-3.42,11-3.88,10.55c-.5,1.35-1,2.69-1.61,4l-6.26,14.38-3.83,8.27q-1.53,3.28-3.33,6.42l-5.42,9.46-7.61,13.34-4.19,7.06-4.15,7-7.92,12.61-3,4.79-4.55,6.77q-2.32,3.45-4.83,6.76l-5.62,7.42,3.25-1.42c1-.46,2.1-.87,3.16-1.26a53.64,53.64,0,0,1,6.79-5.28l5.85-3.86,13.13-5.9,2.06-.15,6.15-5.36,2.64-2.3,12-10.71c1.8-1.61,3.55-3.29,5.23-5l13.94-14.38,11-12.46A126,126,0,0,0,496,733.48l6.22-9,7.17-11.59q2.63-4.24,4.87-8.7l3.28-6.49,2.18,15.22,1.68,9.1c.55,3,1,5.94,1.37,8.92l.62,5.18a79.86,79.86,0,0,1,.55,11.78l-1.76,8.68c-.92,4.57-2.08,9.09-3.45,13.55l-.07.22-4.37,16-2.74,10.67-3.25,14.22,3.6-4.43q3.51-4.3,6.6-8.92l3.51-5.24-.77,6a100.32,100.32,0,0,1-1.8,10l-3.12,13.42-2,9c-.39,1.72-.84,3.44-1.34,5.13l-2,6.87c-.14.5-.32,1-.48,1.48-.24.74-.46,1.48-.72,2.22l-3.13,8.78q-1.6,4.51-3.62,8.87L501,868.69l8.22-5.8a125.38,125.38,0,0,0,10.74-8.48l2.81-2.47.67-.61c1.84-1.65,3.64-3.35,5.37-5.12l11.91-12.16,6.25-6.87a124.2,124.2,0,0,0,12.39-16.13l2.59-4,3.92-6.71a83,83,0,0,0,6.9-15.1l.46-1.35,1.82-6.31a127.45,127.45,0,0,0,3-12.93l.52-2.93A113.81,113.81,0,0,0,580,749.48l.1-1.55a176.16,176.16,0,0,0,.22-18.95l-.41-9.92-1.53-21.23.21-4.87,6,16.15q.9,2.43,1.65,4.92l6.33,21.15,5.17,14.57a80.51,80.51,0,0,0,3.15,7.63l8.42,17.84,11.9,25.53,8.65,21.17c.91,2.22,1.72,4.48,2.45,6.77l8.45,26.61q.81,2.57,1.49,5.18L650,890.65l5.78,21q1.29,4.7,2.15,9.49l2.17,12.11c.51,2.88.91,5.77,1.18,8.68l.82,8.78a105.44,105.44,0,0,1,.45,10.66l0,2.94a105.09,105.09,0,0,1-2.41,21.5l-1.48,6.79c-.58,2.65-1.26,5.28-2.06,7.88l-5,16.44a93.75,93.75,0,0,1-4.65,12.14l-6.07,13.05q-1.54,3.3-3.34,6.47L624,1072.52l-18.46,29.86-11.56,17.08,13.11-7.94L622.92,1101a125.35,125.35,0,0,0,11.9-9c.93-.79,1.89-1.55,2.87-2.27l12.8-9.36a94.11,94.11,0,0,0,8.33-6.85l11.56-10.66,7.38-7.1q1.59-1.53,3.09-3.15l9.73-10.56c.83-.91,1.63-1.84,2.41-2.78Z"/><path class="cls-3" d="M232.15,688.44l.29.31q2.94,3.19,6.11,6.16a104.11,104.11,0,0,0,9.49,7.91l1.41,1c1.23.9,2.43,1.85,3.6,2.82l4.61,3.85a38.86,38.86,0,0,0,4.19,3l4.13,2.56q2.14,1.33,4.35,2.54l7.27,4c2.15,1.18,4.34,2.3,6.55,3.34l8.35,3.93,5.24,2.52,1.87.9c1.14.54,2.25,1.12,3.35,1.73a107,107,0,0,0,13.64,6.36c1.48.56,3,1.07,4.52,1.5l.33.1a50.07,50.07,0,0,0,6,1.33,36.11,36.11,0,0,0,5.59.44,14.39,14.39,0,0,0,2.37-.2,37.47,37.47,0,0,0,7.07-1.9,36,36,0,0,0,5.07-2.37l2.54-1.42q4.39-2.46,8.56-5.35l7.06-4.9,8.39-6.31c1.81-1.37,3.57-2.78,5.3-4.25l10.57-9,6.19-5.32,2.5-2.14c1.23-1.06,2.42-2.15,3.57-3.29l3.7-3.64q2.36-2.33,4.48-4.86l4.86-5.82,3-3.47a55.05,55.05,0,0,0,5.52-7.72l2.51-4.25c1.14-1.91,2.18-3.88,3.14-5.89l2.51-5.23a83.12,83.12,0,0,0,3.87-9.61l2.71-8.12,3.55-10.88,1.26-4.23,3.7,1.19c.21-1.33.39-2.66.54-4l1-9c.2-1.87.35-3.74.42-5.62l.35-8.55.35-9.34c.14-3.63.12-7.27-.06-10.9l-.38-8.05L448.16,556l-1.76-14.33-10.54-6.75-11.18-7.77-4.33-3.26a181.31,181.31,0,0,1-14.05-11.75l-3.44-3.2-6-6c-1.59-1.56-3.12-3.19-4.57-4.88l-4.29-5L382,485.45a44.81,44.81,0,0,1-2.7-3.88,106.56,106.56,0,0,1-5.88-10.81l-4.29-9.08.55,14.28c.09,2.15.08,4.3,0,6.44l-.54,12.25L368.22,506q-.29,3.3-.84,6.57l-1.84,10.62a91.81,91.81,0,0,1-2.25,9.82l-2.81,9.8-5.29,18.72L351,575.22l-.4-18-.41-15.87.12-21q0-3-.18-6l-.75-11.24L348,515.53l-1.28,9.36c-.32,2.35-.75,4.69-1.29,7l-3,12.81-2.91,11.83a78.63,78.63,0,0,1-2.89,9.25l-5.87,15.41.55-14,.54-17-.41-24.42-.12-27.12a59.7,59.7,0,0,0-.32-6l-1.32-13-1.22,18.86-2,21.43-2.57,18.18-3.67,27.43c-.18,1.33-.4,2.66-.67,4l-2.85,14.16-8.55-6.24,11.4,15.19,6.24,8.41-5.2-3.46c-1.69-1.13-3.34-2.3-5-3.53l-7.75-5.89L294.42,579l-7.78-3.7a84.23,84.23,0,0,1-11.82-6.84l-7.12-4.92-10.22-6.37q-3.48-2.17-6.74-4.66l-2.68-2a102,102,0,0,1-12.2-10.94l-4.65-4.89-5.16-5.41a104.76,104.76,0,0,1-11.26-14l-1.89-2.82L210,508a112.66,112.66,0,0,1-7.17-12.3l-.79-1.6A120,120,0,0,1,196.36,481l-3.26-9-1.22,27.81-1,26.09q-.12,3.08-.07,6.15l.32,19.48c0,1.51.1,3,.22,4.52l1.28,15.45a73.79,73.79,0,0,0,1,7.4l1.57,8.69a60.16,60.16,0,0,0,1.6,6.65L201,608l1.13,3.58a71,71,0,0,0,7.83,16.77l-4.48-2.85-11-7.87,4.48,7.6,4.75,8,.67,4.88A54.93,54.93,0,0,0,208,651.54l.45,1.09a85.42,85.42,0,0,0,4.36,9l2.61,4.66a85.8,85.8,0,0,0,9.37,13.55l1.31,1.54,1.27,1.53Q229.65,685.76,232.15,688.44Z"/><path class="cls-12" d="M428.42,318.28l2.28,2.42a104.78,104.78,0,0,1,9,10.92q1.59,2.2,3,4.53l3.79,6.15c.89,1.44,1.81,2.86,2.78,4.26l.27.4a133,133,0,0,0,9.09,11.69,25.64,25.64,0,0,1,3.52,5.21l1.41,2.74a61,61,0,0,1,2.59,5.78l2.33,6,1.5,4A123.37,123.37,0,0,0,480,403l3.14.13a13.12,13.12,0,0,1,3.83.73l1.62.57,3.07,7.77,4,10.25,1,2.44c.69-1,1.34-2,1.95-3s1.28-2.22,1.85-3.36a10.63,10.63,0,0,0,1.11-4.72v-3.65a109.8,109.8,0,0,0-2.61-21.83,21.53,21.53,0,0,0-1.33-4.07L490.81,369l-5.18-11.41q-1.77-3.93-3.86-7.7l-2.55-4.59q-1.71-3.09-3.62-6.06L471.54,333q-2.62-4.05-5.51-7.91l-5.7-7.6-4.5-5.52-4.65-5.2a29.32,29.32,0,0,0-2.77-2.69,27.87,27.87,0,0,0-2.76-2.06h0a11.78,11.78,0,0,0-5-1.84,18.5,18.5,0,0,0-7.51.59,29.14,29.14,0,0,0-3.76,1.38,28.52,28.52,0,0,0-3.89,2.09l-1.54,1,1.31,2.76.07.15A37.17,37.17,0,0,1,428.42,318.28Z"/><path class="cls-7" d="M357.05,1141.4c.52-1.48,1-3,1.39-4.48l6.69-24.69c.38-1.39.71-2.8,1-4.21l3.15-15.38a63.89,63.89,0,0,0,1-6.73l2-20.4,2.16-28.31c.09-1.26.15-2.51.17-3.77l.46-32.08,1-21,.46-9.36,1.08-16c.15-2.23.39-4.45.7-6.67l3.3-23.58,3.17-17.83c.29-1.68.65-3.35,1.06-5l2.62-10.6a71.29,71.29,0,0,1,2.08-6.86l3.37-9.36a69.57,69.57,0,0,1,3-7.18l4.12-8.44q1.21-2.49,2.63-4.88l5.85-9.88a82.21,82.21,0,0,1,6.08-8.86l1.79-2.26a93.2,93.2,0,0,1,8.82-9.7l0,0A56.36,56.36,0,0,1,439,814.73a25.55,25.55,0,0,1,7-2.45,65.86,65.86,0,0,1,7-.93c1.58-.13,3.17-.22,4.76-.24l1.88,0a32.35,32.35,0,0,1,11,1.79,16.47,16.47,0,0,1,4.13,2.12,75.25,75.25,0,0,1,7.89,6.37l2.61,2.42.22.2-3-4.12a69.39,69.39,0,0,0-8.44-9.68h0a79,79,0,0,0-12.28-9.58l-4.2-2.66a4.89,4.89,0,0,0-.72-.37,30.13,30.13,0,0,0-8.42-2l-1.2-.1a58.63,58.63,0,0,0-8.89,0l-2.68.19-2.06.15-13.13,5.9-5.85,3.86a53.64,53.64,0,0,0-6.79,5.28,54.59,54.59,0,0,0-9.46,11.35h0c-.69,1.11-1.35,2.23-2,3.38l-5.62,10.16L387.85,841,382,850.82l-.39.67A98.3,98.3,0,0,0,374.57,866l-1.49,3.8-3.89,8.75a96.11,96.11,0,0,0-6.08,18.55l-1.44,6.62c-.49,2.21-.89,4.45-1.22,6.69l-.6,4.19L358.2,926l-.21,1.47-1.48,11.68a102.17,102.17,0,0,0-.78,10.49l-.39,16.19a103.57,103.57,0,0,0,.43,12.2l.92,9.76q.15,1.54.21,3.09l.66,16.36c.07,1.52.18,3,.35,4.54l1.55,14.15.82,12.3.53,12.17q.12,3.09,0,6.18l-1.1,20.28a63.79,63.79,0,0,1-.88,7.68l-1.61,9.12a66.61,66.61,0,0,1-1.78,7.51l-3.71,12.37a69,69,0,0,1-2.57,7.09l-6.23,14.57-8.7,18.71-6.86,15.64h20l0,0Z"/></g></g></svg>